<svg width="48" height="48" viewBox="0 0 48 48" fill="none" xmlns="http://www.w3.org/2000/svg">
<path d="M0 10C0 4.47715 4.47715 0 10 0H38C43.5229 0 48 4.47715 48 10V38C48 43.5229 43.5228 48 38 48H10C4.47715 48 0 43.5228 0 38V10Z" fill="#FFFAEB"/>
<path d="M32.5 19.2777L24 24M24 24L15.5 19.2777M24 24L24 33.5M26 32.8889L24.777 33.5683C24.4934 33.7259 24.3516 33.8046 24.2015 33.8355C24.0685 33.8629 23.9315 33.8629 23.7986 33.8355C23.6484 33.8046 23.5066 33.7259 23.223 33.5683L15.823 29.4572C15.5235 29.2908 15.3737 29.2076 15.2646 29.0893C15.1682 28.9846 15.0951 28.8605 15.0505 28.7253C15 28.5725 15 28.4012 15 28.0585V19.9414C15 19.5988 15 19.4275 15.0505 19.2747C15.0951 19.1395 15.1682 19.0154 15.2646 18.9107C15.3737 18.7924 15.5234 18.7092 15.823 18.5428L23.223 14.4317C23.5066 14.2741 23.6484 14.1953 23.7986 14.1645C23.9315 14.1371 24.0685 14.1371 24.2015 14.1645C24.3516 14.1953 24.4934 14.2741 24.777 14.4317L32.177 18.5428C32.4766 18.7092 32.6263 18.7924 32.7354 18.9107C32.8318 19.0154 32.9049 19.1395 32.9495 19.2747C33 19.4275 33 19.5988 33 19.9414L33 24.5M19.5 16.5L28.5 21.5M31 33V27M28 30H34" stroke="#DC6803" stroke-width="2" stroke-linecap="round" stroke-linejoin="round"/>
</svg>
