<svg width="48" height="48" viewBox="0 0 48 48" fill="none" xmlns="http://www.w3.org/2000/svg">
<rect width="48" height="48" rx="10" fill="#FFFAEB"/>
<path d="M23.9995 24.0001H24.0095M27.535 27.5357C22.8488 32.222 17.4669 34.438 15.5142 32.4854C13.5616 30.5328 15.7777 25.1509 20.464 20.4646C25.1503 15.7783 30.5322 13.5622 32.4848 15.5149C34.4374 17.4675 32.2213 22.8494 27.535 27.5357ZM27.535 20.4644C32.2213 25.1507 34.4374 30.5326 32.4848 32.4852C30.5321 34.4379 25.1502 32.2218 20.4639 27.5355C15.7776 22.8492 13.5616 17.4673 15.5142 15.5147C17.4668 13.5621 22.8487 15.7781 27.535 20.4644ZM24.4995 24.0001C24.4995 24.2763 24.2757 24.5001 23.9995 24.5001C23.7234 24.5001 23.4995 24.2763 23.4995 24.0001C23.4995 23.724 23.7234 23.5001 23.9995 23.5001C24.2757 23.5001 24.4995 23.724 24.4995 24.0001Z" stroke="#DC6803" stroke-width="2" stroke-linecap="round" stroke-linejoin="round"/>
</svg>
